# xmcd
#
# Track frame offsets:
# 150
# 21058
# 41960
#
# Disc length: 781 seconds
#
#
# Revision: 0
# Processed by: cddbd v1.5.1PL0 Copyright (c) Steve Scherf et al.
# Submitted via: FreeRIP 2.92 
#
DISCID=1f030b03
DTITLE=Hallo Venray - The Road
DYEAR=1900
DGENRE=Blues
TTITLE0=The Road
TTITLE1=Not So Long
TTITLE2=Black
EXTD=
EXTT0=
EXTT1=
EXTT2=
PLAYORDER=
